<svg width="156" height="93" viewBox="0 0 156 93" fill="none" xmlns="http://www.w3.org/2000/svg">
<rect width="156" height="93" rx="10" fill="#37AE7A"/>
<path d="M55.3274 60.9224C55.6804 60.6181 56.0657 60.3939 56.4669 60.2338L57.1731 54.5322C57.1731 54.5322 52.7593 43.033 44.1569 41.912C37.9297 50.2559 46.1952 58.616 46.1952 58.616L54.3483 62.0273C54.6371 61.595 54.9742 61.2265 55.3274 60.9224Z" fill="#B0DEF2"/>
<path d="M55.2953 60.9543L50.1273 51.9697L52.6311 47.0529C52.5669 46.9729 52.5025 46.9087 52.4384 46.8287L49.9668 51.6815L44.3816 41.9441C44.3174 41.9279 44.2532 41.9279 44.1729 41.912C44.1408 41.9438 44.1248 41.9759 44.1087 42.008L47.11 47.229L42.1346 46.2201C42.1186 46.2681 42.1186 46.3163 42.1025 46.3643L42.0704 46.4923L47.2865 47.5494L52.2778 56.2459L43.4668 54.7244C43.5149 54.8203 43.5791 54.9325 43.6272 55.0287L52.4384 56.5341L55.0865 61.1465C55.1509 61.0825 55.215 61.0184 55.2953 60.9543Z" fill="white"/>
<path d="M53.5138 64.3976C53.562 63.3246 54.1238 62.1715 54.878 61.3547L54.2359 59.6249C54.2359 59.6249 45.6655 53.9235 40.0161 57.8952C40.5136 66.5437 47.5273 69.8588 52.8396 71.124C52.8396 71.0601 52.8396 71.0119 52.8396 70.948C52.8878 69.7628 53.5779 68.4814 54.4447 67.6647C53.8026 66.6879 53.4655 65.5186 53.5138 64.3976Z" fill="#11375B"/>
<path d="M53.5617 65.327L47.8322 62.1237L46.2433 56.5984C46.147 56.5825 46.0507 56.5825 45.9544 56.5663L47.4951 61.9477L40.1284 57.8316C40.0802 57.8636 40.0481 57.8796 40 57.9116C40 57.9598 40 58.0238 40.016 58.0717L52.1816 64.8784L45.1519 67.7132C45.2321 67.7773 45.3284 67.8413 45.4087 67.9054L52.4866 65.0386L53.6261 65.6792C53.594 65.5512 53.5779 65.4391 53.5617 65.327Z" fill="#00666A"/>
<path d="M89.4324 9C83.5744 14.8136 86.6075 24.5832 87.4903 27.0495C87.7632 27.2578 88.0041 27.498 88.2285 27.7702L97.762 30.3007C97.762 30.2845 104.374 15.6464 89.4324 9Z" fill="#ACCF84"/>
<path d="M89.4324 9C89.4806 9.01603 89.5288 9.04806 89.593 9.06407L91.8078 24.1667L98.0191 16.9437C98.067 17.0398 98.0993 17.1359 98.1473 17.232L91.856 24.5352L92.4979 28.8912L92.1931 28.8112L90.9251 20.1308L85.9337 17.7605C85.9337 17.6644 85.9498 17.5523 85.9498 17.4562L90.8769 19.7945L89.3041 9.12814C89.3521 9.08008 89.3844 9.03205 89.4324 9Z" fill="white"/>
<path d="M91.3743 25.9125C91.3743 25.9125 93.846 11.6266 104.23 9.16022C111.516 17.3121 103.652 26.8093 103.652 26.8093L93.6374 32.0783L91.3743 25.9125Z" fill="#212B53"/>
<path d="M96.0287 15.0539L99.078 19.9066L104.021 9.20825C104.086 9.19224 104.166 9.17623 104.23 9.16022C104.262 9.19224 104.278 9.22426 104.31 9.25631L101.662 14.9899L106.766 13.4684C106.782 13.5164 106.798 13.5645 106.814 13.6125L106.846 13.7406L101.502 15.3262L97.0879 24.8713L106.14 22.4851C106.092 22.5972 106.044 22.7093 105.995 22.8214L96.9275 25.2077L93.7979 31.9823L93.6212 32.0783L93.5571 31.8061L98.9177 20.2109L95.836 15.2942C95.9163 15.2141 95.9646 15.134 96.0287 15.0539Z" fill="#00666A"/>
<path d="M111.099 25.8802C105.466 21.3319 96.0928 26.6972 96.0928 26.6972L93.4929 32.4627C94.1348 34.6888 94.3436 36.9791 93.8138 39.1893C99.3027 38.7888 109.735 36.6106 111.099 25.8802Z" fill="#B0DEF2"/>
<path d="M111.067 26.0565C111.067 26.0085 111.083 25.9443 111.083 25.8963C111.035 25.8643 111.003 25.8322 110.955 25.8001L102.962 29.5799L104.969 24.0546C104.872 24.0546 104.76 24.0705 104.664 24.0705L102.609 29.7559L93.8303 33.9041C93.8462 34.0001 93.8623 34.0963 93.8783 34.1923L97.5217 32.4626L104.728 35.9702C104.824 35.906 104.92 35.858 105.001 35.7939L97.8426 32.3184L111.067 26.0565Z" fill="white"/>
<path d="M86.5116 53.2828C86.5598 53.2187 86.5598 53.1548 86.5437 53.0747L86.271 52.3219C86.2228 52.1939 86.0622 52.1297 85.9339 52.2098L84.7624 52.9785C84.698 53.0265 84.6659 53.0906 84.6659 53.1707V54.3238C84.6659 54.3238 84.0721 57.4308 84.3609 58.648C84.6338 59.8653 85.5165 58.9203 85.7574 58.7122C85.2438 57.1747 85.5006 54.7402 85.5006 54.7402L86.5116 53.2828Z" fill="#F8B68F"/>
<path d="M59.3076 51.6814L57.3175 56.8383L56.0657 55.9094L58.8582 51.217L59.3076 51.6814Z" fill="#F4A086"/>
<path d="M59.0509 50.112C58.9226 50.2721 58.8584 50.4643 58.8744 50.6564L58.7941 51.409L58.8905 51.5212L59.2435 51.8255C59.2276 51.6653 59.2114 51.8255 59.2114 51.8255L59.7732 50.8486C59.7732 50.8486 60.4474 50.416 59.5967 49.7756C59.5164 49.7115 59.4041 49.6955 59.3076 49.7594C59.0991 49.9036 59.0509 50.112 59.0509 50.112Z" fill="#F4A086"/>
<path d="M54.9261 60.5701C56.3545 58.6642 57.3175 56.8383 57.3175 56.8383L56.2421 55.6213L54.9261 57.1588V60.5701Z" fill="#00666A"/>
<path d="M95.5472 27.6101L96.2052 25.3359C96.2855 25.3519 96.3658 25.368 96.4461 25.368C96.7831 25.3519 97.072 25.0476 97.0879 24.7112C97.2164 24.6311 97.2967 24.4872 97.3288 24.343L98.7892 25.0316C98.7892 25.0316 98.1153 27.5459 97.1523 28.3947C96.1893 29.2437 93.1077 31.5979 93.1077 31.5979L92.53 31.3737L95.5472 27.6101Z" fill="#F4A086"/>
<path d="M92.3696 31.4699C92.3375 31.5179 92.209 31.678 91.8078 31.8381C91.4548 31.9823 90.6362 32.0624 90.893 32.3667C91.2942 32.4467 91.7596 32.5909 91.7596 32.5909C92.0004 32.6068 92.3696 32.3987 92.562 32.2225L93.1079 31.5979C93.1079 31.5979 93.0435 31.1974 93.0435 31.1815L92.867 31.1656C92.7387 31.3096 92.5622 31.4058 92.3696 31.4699Z" fill="#F4A086"/>
<path d="M92.3052 31.678C92.3052 31.678 92.3052 31.6941 92.2732 31.726C92.3214 31.726 92.3855 31.7421 92.4335 31.7421C92.6261 31.6941 92.8188 31.6459 93.0114 31.582C92.9632 31.4699 92.8991 31.3257 92.8991 31.3257L91.5831 31.4217C91.5831 31.4217 91.5187 31.582 91.7917 31.6459C92.0484 31.726 92.3052 31.678 92.3052 31.678Z" fill="#F4A086"/>
<path d="M78.2299 39.0772L69.4188 22.1808C78.3423 17.5523 89.3524 21.0117 93.9906 29.9163C96.061 33.888 96.5104 38.2764 95.5957 42.3284L78.2299 39.0772Z" fill="white"/>
<path d="M74.1694 44.6666L67.9582 26.6651C58.4408 29.9322 53.3852 40.2783 56.6593 49.7755C58.1199 54.0036 60.9927 57.3669 64.5718 59.4809L74.1694 44.6666Z" fill="#B0DEF2"/>
<path d="M116.765 83.9526L104.744 46.6683H104.054L116.075 83.9526H116.765Z" fill="#B0D9C8"/>
<path d="M110.393 83.9526L98.3721 46.6683H97.6661L109.687 83.9526H110.393Z" fill="#B0D9C8"/>
<path d="M107.938 56.5979V57.1744L101.341 57.1585L101.229 56.5979H107.938Z" fill="#B0D9C8"/>
<path d="M106.573 52.8985V53.4589H99.9771L99.8647 52.8823L106.573 52.8985Z" fill="#B0D9C8"/>
<path d="M105.45 49.1829V49.7594H98.8374L98.725 49.1829H105.45Z" fill="#B0D9C8"/>
<path d="M109.141 60.3456V60.9221H102.545L102.433 60.3456H109.141Z" fill="#B0D9C8"/>
<path d="M110.281 64.1092V64.6699H103.669L103.556 64.0933L110.281 64.1092Z" fill="#B0D9C8"/>
<path d="M111.437 68.001L111.709 68.5776L105.097 68.5614L104.984 68.001H111.437Z" fill="#B0D9C8"/>
<path d="M112.673 71.8928L112.945 72.4695H106.349L106.237 71.8928H112.673Z" fill="#B0D9C8"/>
<path d="M113.844 75.7045L114.101 76.2811H107.505L107.392 75.7045H113.844Z" fill="#B0D9C8"/>
<path d="M114.807 79.6122L115.064 80.1728H108.467L108.355 79.5963L114.807 79.6122Z" fill="#B0D9C8"/>
<path d="M85.9498 83.9526L97.9708 46.6683H97.2808L85.2595 83.9526H85.9498Z" fill="#37AE7A"/>
<path d="M92.3216 83.9526L104.343 46.6683H103.653L91.6313 83.9526H92.3216Z" fill="#37AE7A"/>
<path d="M94.0868 56.5979V57.1744L100.683 57.1585L100.795 56.5979H94.0868Z" fill="#37AE7A"/>
<path d="M95.451 52.8985V53.4589H102.047L102.16 52.8823L95.451 52.8985Z" fill="#37AE7A"/>
<path d="M96.5743 49.1829V49.7594H103.171L103.299 49.1829H96.5743Z" fill="#37AE7A"/>
<path d="M92.8832 60.3456V60.9221H99.4795L99.5918 60.3456H92.8832Z" fill="#37AE7A"/>
<path d="M91.7437 64.1092V64.6699H98.3561L98.4685 64.0933L91.7437 64.1092Z" fill="#37AE7A"/>
<path d="M90.5881 68.001L90.3151 68.5776L96.9116 68.5614L97.024 68.001H90.5881Z" fill="#37AE7A"/>
<path d="M89.3362 71.8928L89.0794 72.4695H95.6757L95.7881 71.8928H89.3362Z" fill="#37AE7A"/>
<path d="M88.1806 75.7045L87.9238 76.2811H94.5201L94.6324 75.7045H88.1806Z" fill="#37AE7A"/>
<path d="M87.2176 79.6122L86.9608 80.1728H93.5573L93.6697 79.5963L87.2176 79.6122Z" fill="#37AE7A"/>
<path d="M97.939 21.0597L98.3884 22.0366L99.6723 21.428L98.5649 19.8265L97.939 21.0597Z" fill="#F4A086"/>
<path d="M96.3821 18.5773C96.3821 18.5773 96.671 21.1077 97.2489 21.348C97.8266 21.5882 98.5008 20.7394 98.5008 20.7394L99.1426 19.2499L97.0883 18.3691L96.3821 18.5773Z" fill="#F8B68F"/>
<path d="M95.4353 18.0808C95.4353 18.0808 95.8686 18.9616 97.1366 18.5613C97.4896 18.5613 97.6822 18.9296 97.7946 19.2499C97.9069 19.6183 97.9549 19.33 98.244 19.5862L98.7576 20.323C98.7576 20.323 99.9453 18.0968 98.3402 17.4241C96.7513 16.7675 95.4353 18.0808 95.4353 18.0808Z" fill="#212B53"/>
<path d="M98.1637 19.2019C98.0354 19.1699 97.891 19.266 97.8269 19.4101C97.7625 19.5543 97.8107 19.6984 97.9231 19.7304C98.0514 19.7625 98.1958 19.6664 98.2602 19.5222C98.3243 19.3781 98.2761 19.2339 98.1637 19.2019Z" fill="#F8B68F"/>
<path d="M100.202 21.332C103.396 23.2218 102.176 31.0214 102.176 31.0214H97.3131C97.3131 31.0214 97.2651 28.9875 97.2007 26.8252C97.1527 25.1918 96.9922 23.4941 97.4416 22.5652C98.0514 21.2839 99.3996 20.8675 100.202 21.332Z" fill="white"/>
<path d="M98.5329 26.3767C98.5329 26.3767 97.8107 28.8753 96.8316 29.7079C95.8686 30.5408 93.0599 32.7829 93.0599 32.7829L92.1451 32.5907L95.2265 28.8912L96.3342 25.2877L98.5329 26.3767Z" fill="#F8B68F"/>
<path d="M98.7573 26.6171L96.0931 25.5279L97.4252 22.5652L99.1906 23.4781L98.7573 26.6171Z" fill="white"/>
<path d="M103.235 47.9656C103.235 47.9656 102.706 48.4621 101.47 48.7664C101.197 48.8305 100.908 48.7504 100.908 49.1828C101.486 49.1828 102.401 49.1828 102.401 49.1828L103.636 48.9747V49.1828H104.311C104.311 49.1828 104.503 48.0938 104.102 47.9496C103.733 47.9656 103.235 47.9656 103.235 47.9656Z" fill="#212B53"/>
<path d="M103.364 47.1969L103.235 47.9818C103.476 48.1578 103.797 48.1578 104.054 48.0139L104.102 47.9818L104.038 47.1969H103.364Z" fill="#F8B68F"/>
<path d="M102.176 31.0053C102.176 31.0053 102.657 32.639 102.754 36.6107C102.77 37.4115 102.994 38.1964 103.348 38.933C104.744 41.8158 104.118 47.3893 104.118 47.3893H103.155L99.303 33.6959L100.651 31.0053H102.176Z" fill="#212B53"/>
<path d="M98.0033 48.4462C98.0033 48.4462 97.4736 48.9427 96.2377 49.247C95.965 49.3111 95.6761 49.2308 95.6761 49.6634C96.2539 49.6634 97.1686 49.6634 97.1686 49.6634L98.4045 49.4551V49.6634H99.0785C99.0785 49.6634 99.2711 48.5742 98.8699 48.4302C98.5008 48.4462 98.0033 48.4462 98.0033 48.4462Z" fill="#212B53"/>
<path d="M98.1316 47.6615L98.0034 48.4462C98.244 48.6224 98.5649 48.6224 98.8217 48.4782L98.8699 48.4462L98.8058 47.6615H98.1316Z" fill="#F8B68F"/>
<path d="M93.0599 32.7832L92.3378 33.8562C92.0166 34.2724 91.166 34.0964 90.6365 33.8401C90.5562 33.7921 90.5562 33.6959 90.6204 33.632C91.0056 33.3597 91.9846 32.6711 92.3055 32.5428L93.0599 32.7832Z" fill="#F8B68F"/>
<path d="M97.313 31.0052L97.7945 47.8858H98.8058C98.8058 47.8858 100.234 43.1931 99.9291 39.9419C99.849 39.061 99.9614 38.1642 100.314 37.3634C101.823 33.8721 101.582 30.9893 101.582 30.9893H97.313V31.0052Z" fill="#043C5E"/>
<path d="M51.5877 82.9757L52.2137 83.0878C52.342 82.3029 54.3 78.6034 54.4606 76.6816C54.6371 74.5514 55.1348 72.1652 55.1348 72.1652L53.0161 71.5406C53.0161 71.5406 52.4864 71.5407 53.0644 75.8967C51.7803 77.6105 51.4112 81.5342 51.5877 82.9757Z" fill="#F4A086"/>
<path d="M53.1446 69.955C53.1446 69.955 53.6422 72.934 54.3323 76.121C53.6099 78.0429 54.7174 83.4081 54.7335 83.3922C54.8138 83.3121 55.1989 83.7765 55.1989 83.7765C55.1989 83.7765 56.0015 79.0358 56.178 76.9059C56.3545 74.7757 56.4027 72.1652 56.4027 72.1652L53.1446 69.955Z" fill="#F8B68F"/>
<path d="M54.6373 83.0878C54.6373 83.0878 54.3323 83.3441 54.3964 83.6644C54.4447 83.9846 54.5249 84.7533 54.5249 84.7533H54.8297L54.8138 84.0487C54.8138 84.0008 55.4718 84.7533 55.5841 84.7533H57.2213C57.2213 84.7533 57.3336 84.273 56.3706 84.1288C55.4236 83.9525 54.6373 83.0878 54.6373 83.0878Z" fill="#043C5E"/>
<path d="M52.294 82.5434L52.2457 83.2159C52.2298 83.3601 52.2778 83.5043 52.3581 83.6164C52.4545 83.7445 52.599 83.9207 52.8558 84.1288C52.3743 84.273 51.9569 83.7445 51.7322 83.3922C51.6199 83.2159 51.5717 83.0078 51.6038 82.8156L51.6841 82.287L52.294 82.5434Z" fill="#F4A086"/>
<path d="M51.5878 82.9117C51.5878 82.9117 51.1705 82.9436 51.1063 83.264C51.0421 83.5843 50.8334 84.225 50.8334 84.225L51.0581 84.401L51.3791 83.7605C51.3791 83.7605 52.0692 84.6894 52.1816 84.7374H53.9791C53.9791 84.7374 53.9791 84.1449 52.8558 84.1287C51.8285 84.0969 51.5878 82.9117 51.5878 82.9117Z" fill="#212B53"/>
<path d="M61.1374 51.4251L59.1632 56.5981L57.9114 55.6693L60.7039 50.9768L61.1374 51.4251Z" fill="#F8B68F"/>
<path d="M60.8966 49.8716C60.7683 50.0319 60.7041 50.2241 60.7201 50.4163L60.6398 51.1689L60.7362 51.281L61.0892 51.5853C61.0733 51.4252 61.0571 51.5853 61.0571 51.5853L61.6189 50.6085C61.6189 50.6085 62.2931 50.1759 61.4424 49.5354C61.3621 49.4713 61.2498 49.4554 61.1533 49.5193C60.9448 49.6475 60.8966 49.8716 60.8966 49.8716Z" fill="#F8B68F"/>
<path d="M55.1507 57.8634H53.8668L54.3803 56.3577L55.3754 56.9825L55.1507 57.8634Z" fill="#F4A086"/>
<path d="M56.8519 59.465C56.8519 59.4329 56.8358 59.4009 56.8358 59.3688C58.1038 57.7354 59.1791 56.5982 59.1791 56.5982L58.1038 55.3812L55.6642 57.7033H54.9421C54.9421 57.7033 53.9791 57.0626 53.1284 57.9435C52.8234 58.2639 52.6149 59.1286 52.8234 60.0415C53.3852 62.5561 52.9517 63.8852 52.9517 63.8852L56.2419 65.1184C56.2419 65.1184 56.3222 62.9404 56.3704 61.403C56.3863 61.0987 56.4828 60.8262 56.6431 60.5701C56.8037 60.2337 56.916 59.8653 56.8519 59.465Z" fill="#01898C"/>
<path d="M55.6001 53.6672L53.5137 54.4041L53.7223 55.9575C53.7223 55.9734 53.7384 56.0054 53.7384 56.0216C53.7864 56.0216 53.8185 56.0375 53.8667 56.0537H53.8829H53.8988C54.3803 56.1656 54.7174 56.5661 54.8779 57.0305C55.1827 57.0785 55.4877 57.0785 55.7766 57.0146C55.9854 56.9664 56.1618 56.9025 56.2581 56.8062C56.6913 55.8615 55.6001 53.6672 55.6001 53.6672Z" fill="#F8B68F"/>
<path d="M55.5521 54.9966C54.9905 55.2688 55.1188 58.1677 55.0226 60.1375C54.9744 61.1947 54.172 62.0755 53.1125 62.2356C52.3584 62.3478 51.5398 62.3798 51.0583 62.0914C51.3793 61.8192 53.1448 59.2408 52.5831 55.8135C52.5028 55.365 52.5028 54.0998 53.257 53.427C54.1076 52.6745 55.841 53.6513 55.841 53.6513C55.841 53.6513 56.3224 54.6284 55.5521 54.9966Z" fill="#212B53"/>
<path d="M56.2902 63.789C56.2902 63.789 56.7237 66.0151 56.7237 67.3445C56.7237 68.0653 56.5472 72.6617 56.5472 72.6617C56.5472 72.6617 53.4173 72.886 52.8076 72.886C52.6631 69.1221 51.7964 69.0102 51.7964 67.2644C51.7964 66.4957 52.1816 65.6469 52.4866 65.0863C52.6952 64.686 52.8396 64.4138 52.9199 63.8691L52.9358 63.8052L56.2902 63.789Z" fill="#37AE7A"/>
<path d="M77.8929 43.033L72.099 59.2566C77.1225 61.0345 82.8684 60.6181 87.7634 57.607C92.5302 54.6763 95.4671 49.9197 96.2375 44.8106L77.8929 43.033Z" fill="#11375B"/>
<path d="M85.4683 83.2159C85.4683 83.2159 84.9065 83.7283 83.6386 84.0485C83.3659 84.1126 83.0609 84.0326 83.0609 84.4809C83.6547 84.4809 84.6015 84.4809 84.6015 84.4809L85.8855 84.2568V84.4809H86.5758C86.5758 84.4809 86.7682 83.3439 86.367 83.1997C85.9819 83.2159 85.4683 83.2159 85.4683 83.2159Z" fill="#212B53"/>
<path d="M85.5966 82.3989L85.4681 83.2159C85.7251 83.3919 86.046 83.4081 86.3189 83.248L86.3669 83.2159L86.3028 82.3989H85.5966Z" fill="#F8B68F"/>
<path d="M91.567 83.2159C91.567 83.2159 91.0054 83.7283 89.7374 84.0485C89.4645 84.1126 89.1595 84.0326 89.1595 84.4809C89.7533 84.4809 90.7004 84.4809 90.7004 84.4809L91.9843 84.2568V84.4809H92.6744C92.6744 84.4809 92.867 83.3439 92.4658 83.1997C92.0967 83.2159 91.567 83.2159 91.567 83.2159Z" fill="#212B53"/>
<path d="M91.7116 82.3989L91.5831 83.2159C91.8399 83.3919 92.1611 83.4081 92.4338 83.248L92.482 83.2159L92.4178 82.3989H91.7116Z" fill="#F8B68F"/>
<path d="M84.5695 59.8011C84.5695 59.8011 82.5632 59.1607 81.9214 58.2957C81.2954 57.431 82.3546 52.7383 82.3546 52.7383L82.2102 51.8896C82.1299 51.409 82.4991 50.9766 82.9806 50.9766H83.5103C83.735 50.9766 83.8794 51.2009 83.7991 51.409L83.0929 52.9947C83.0929 52.9947 82.5632 56.5502 83.3015 56.8224C84.1842 57.1426 85.1954 57.2068 85.1954 57.2068L84.5695 59.8011Z" fill="#F8B68F"/>
<path d="M90.3954 66.4478C90.3954 66.4478 90.283 68.882 89.7536 71.5407C89.593 72.3254 89.6571 73.1262 89.9139 73.879C91.1178 77.4343 92.6102 82.7995 92.6102 82.7995H91.4869C91.4869 82.7995 87.9079 76.4733 87.0252 73.3343C86.1584 70.1954 85.9978 69.2025 85.9978 69.2025L87.0411 66.4637L90.3954 66.4478Z" fill="#212B53"/>
<path d="M88.2929 53.1868L90.3151 54.5L89.6892 56.0855C89.6733 56.1016 89.6733 56.1337 89.6571 56.1496C89.6089 56.1496 89.5609 56.1496 89.5286 56.1496H89.5127H89.4966C88.9509 56.1496 88.5015 56.486 88.2126 56.9345C87.8917 56.9024 87.5546 56.8383 87.2658 56.6941C87.057 56.5981 86.8805 56.486 86.8164 56.358C86.5755 55.2046 88.2929 53.1868 88.2929 53.1868Z" fill="#F8B68F"/>
<path d="M88.7262 56.9186L88.9029 58.0237H87.3461L87.2337 56.6784L88.7262 56.9186Z" fill="#F4A086"/>
<path d="M88.1644 56.9184L88.63 55.8774L88.325 55.6852C88.1003 55.5412 88.004 55.2688 88.0843 55.0127L88.4212 54.0197C88.4212 54.0197 87.4582 53.9076 87.4905 53.0108C87.4905 52.5461 88.1164 52.5461 88.1164 52.5461C88.1164 52.5461 88.3088 52.9626 88.8868 53.0108C89.1435 52.9787 89.8336 53.0747 90.2992 53.8914C90.6201 54.4361 90.4757 55.3008 90.2027 55.9415C89.9621 56.5181 89.3362 56.8383 88.7103 56.9345L88.1644 56.9184Z" fill="#212B53"/>
<path d="M88.8868 55.3971C88.9509 55.5572 88.8224 55.7814 88.63 55.8774C88.4373 55.9895 88.2285 55.9256 88.1644 55.7653C88.1002 55.6052 88.2285 55.3809 88.4212 55.2849C88.63 55.1728 88.8385 55.2208 88.8868 55.3971Z" fill="#F8B68F"/>
<path d="M85.5163 66.4478H90.3954V60.2017C90.3954 58.8244 89.3521 57.6872 87.9879 57.5591L84.5853 57.1427C84.5853 57.1427 84.1841 57.7513 83.0767 59.1767C84.4089 59.9936 85.9657 60.378 85.9657 60.378L85.5163 66.4478Z" fill="#63C1C5"/>
<path d="M90.3954 66.4478C90.3954 66.4478 89.7053 68.9461 87.1534 71.7329C86.7361 72.1493 86.1102 73.03 86.2066 74.2793L86.5434 82.7995H85.4039C85.4039 82.7995 83.3658 75.7208 83.767 72.2453C84.1682 68.754 85.5163 66.4637 85.5163 66.4637L90.3954 66.4478Z" fill="#11375B"/>
</svg>
