<svg width="44" height="44" viewBox="0 0 44 44" fill="none" xmlns="http://www.w3.org/2000/svg">
<path fill-rule="evenodd" clip-rule="evenodd" d="M22 41.8C32.9352 41.8 41.8 32.9352 41.8 22C41.8 11.0648 32.9352 2.2 22 2.2C11.0648 2.2 2.2 11.0648 2.2 22C2.2 32.9352 11.0648 41.8 22 41.8ZM22 44C34.1503 44 44 34.1503 44 22C44 9.84974 34.1503 0 22 0C9.84974 0 0 9.84974 0 22C0 34.1503 9.84974 44 22 44Z" fill="white"/>
<path d="M22 28.6157C21.7808 28.6157 21.5694 28.5363 21.4047 28.392C20.7826 27.848 20.1828 27.3368 19.6536 26.8858L19.6509 26.8835C18.0994 25.5613 16.7596 24.4196 15.8275 23.2948C14.7854 22.0374 14.3 20.8452 14.3 19.5428C14.3 18.2774 14.7339 17.11 15.5217 16.2554C16.3189 15.3908 17.4128 14.9146 18.6022 14.9146C19.4911 14.9146 20.3052 15.1957 21.0218 15.7499C21.3834 16.0296 21.7113 16.372 22 16.7714C22.289 16.372 22.6167 16.0296 22.9784 15.7499C23.695 15.1957 24.5091 14.9146 25.3981 14.9146C26.5873 14.9146 27.6813 15.3908 28.4785 16.2554C29.2663 17.11 29.7 18.2774 29.7 19.5428C29.7 20.8452 29.2148 22.0374 28.1728 23.2947C27.2406 24.4196 25.9009 25.5612 24.3497 26.8833C23.8195 27.3349 23.2188 27.8469 22.5953 28.3922C22.4307 28.5363 22.2192 28.6157 22 28.6157Z" fill="white"/>
</svg>
