<svg width="154" height="154" viewBox="0 0 154 154" fill="none" xmlns="http://www.w3.org/2000/svg">
<path d="M133.925 124.225C141.525 115.088 146.81 104.256 149.335 92.6465C151.859 81.0366 151.548 68.9899 148.428 57.5255C145.308 46.0611 139.471 35.5163 131.41 26.7831C123.349 18.0498 113.302 11.3851 102.118 7.35272C90.9349 3.32032 78.944 2.03888 67.16 3.61679C55.3761 5.1947 44.1457 9.58554 34.4191 16.4179C24.6924 23.2502 16.7556 32.323 11.28 42.8688C5.80444 53.4146 2.95116 65.1232 2.96158 77.004C2.96557 94.2752 9.05624 110.993 20.1648 124.225L20.059 124.315C20.4294 124.759 20.8527 125.14 21.2337 125.579C21.71 126.123 22.2233 126.636 22.7154 127.165C24.1971 128.773 25.7211 130.317 27.3192 131.765C27.806 132.21 28.3087 132.622 28.8008 133.045C30.4942 134.505 32.2351 135.89 34.0396 137.18C34.2724 137.339 34.4841 137.545 34.7169 137.709V137.646C47.1106 146.361 61.8956 151.038 77.0504 151.038C92.2052 151.038 106.99 146.361 119.384 137.646V137.709C119.617 137.545 119.823 137.339 120.061 137.18C121.86 135.885 123.607 134.505 125.3 133.045C125.792 132.622 126.295 132.204 126.782 131.765C128.38 130.311 129.904 128.773 131.385 127.165C131.877 126.636 132.385 126.123 132.867 125.579C133.243 125.14 133.671 124.759 134.042 124.31L133.925 124.225ZM77.0451 34.7008C81.7548 34.7008 86.3587 36.0963 90.2746 38.711C94.1906 41.3257 97.2427 45.0421 99.045 49.3901C100.847 53.7382 101.319 58.5227 100.4 63.1386C99.4813 67.7545 97.2134 71.9944 93.8831 75.3223C90.5529 78.6502 86.3099 80.9165 81.6907 81.8346C77.0715 82.7528 72.2836 82.2816 67.9324 80.4805C63.5812 78.6795 59.8622 75.6296 57.2457 71.7164C54.6291 67.8033 53.2325 63.2026 53.2325 58.4963C53.2325 52.1853 55.7414 46.1329 60.2071 41.6703C64.6728 37.2078 70.7296 34.7008 77.0451 34.7008ZM34.7487 124.225C34.8405 117.282 37.6641 110.654 42.6087 105.775C47.5533 100.896 54.2213 98.1591 61.1701 98.1556H92.9201C99.8689 98.1591 106.537 100.896 111.481 105.775C116.426 110.654 119.25 117.282 119.341 124.225C107.736 134.676 92.6675 140.459 77.0451 140.459C61.4227 140.459 46.3542 134.676 34.7487 124.225Z" fill="#D8EEFF"/>
<circle cx="77" cy="76.9999" r="74.0385" fill="black" fill-opacity="0.25"/>
<circle cx="125.67" cy="127.123" r="16.7076" fill="#29294D"/>
<path d="M125.67 125.73C124.516 125.73 123.581 126.665 123.581 127.819C123.581 128.972 124.516 129.907 125.67 129.907C126.823 129.907 127.758 128.972 127.758 127.819C127.758 126.665 126.823 125.73 125.67 125.73Z" fill="white"/>
<path fill-rule="evenodd" clip-rule="evenodd" d="M125.67 135.476C118.791 135.476 117.316 134.264 117.316 128.202C117.316 124.262 117.316 121.156 120.449 121.156C122.113 121.156 122.205 120.482 122.292 119.85C122.368 119.293 122.44 118.769 123.581 118.769L127.758 118.769C128.9 118.769 128.972 119.293 129.048 119.85C129.134 120.482 129.226 121.156 130.891 121.156C134.024 121.156 134.024 124.34 134.024 128.202C134.024 134.192 132.549 135.476 125.67 135.476ZM129.151 124.338C129.151 124.722 129.462 125.034 129.847 125.034C130.231 125.034 130.543 124.722 130.543 124.338C130.543 123.953 130.231 123.642 129.847 123.642C129.462 123.642 129.151 123.953 129.151 124.338ZM125.67 124.338C123.748 124.338 122.189 125.896 122.189 127.819C122.189 129.741 123.748 131.299 125.67 131.299C127.592 131.299 129.151 129.741 129.151 127.819C129.151 125.896 127.592 124.338 125.67 124.338Z" fill="white"/>
</svg>
