<svg width="43" height="91" viewBox="0 0 43 91" fill="none" xmlns="http://www.w3.org/2000/svg">
<path d="M8.86007 67.695C2.85968 59.0148 0 48.6654 0 36.9467V0H43V42.7414H28.0757C28.5792 45.6691 29.4781 48.1981 30.7112 50.3821C32.68 53.869 35.6794 56.7958 39.9619 59.1177L43 60.7649V91L34.9145 87.6274C23.6729 82.9383 14.8476 76.3566 8.86007 67.695Z" fill="white"/>
<path d="M8.86007 67.695C2.85968 59.0148 0 48.6654 0 36.9467V0H43V42.7414H28.0757C28.5792 45.6691 29.4781 48.1981 30.7112 50.3821C32.68 53.869 35.6794 56.7958 39.9619 59.1177L43 60.7649V91L34.9145 87.6274C23.6729 82.9383 14.8476 76.3566 8.86007 67.695Z" fill="white" fill-opacity="0.6"/>
</svg>
