<svg width="20" height="20" viewBox="0 0 20 20" fill="none" xmlns="http://www.w3.org/2000/svg">
<path d="M8.75 3.75C8.75 3.02065 8.46027 2.32118 7.94454 1.80546C7.42882 1.28973 6.72935 1 6 1C5.27065 1 4.57118 1.28973 4.05546 1.80546C3.53973 2.32118 3.25 3.02065 3.25 3.75C3.25 4.47935 3.53973 5.17882 4.05546 5.69454C4.57118 6.21027 5.27065 6.5 6 6.5C6.72935 6.5 7.42882 6.21027 7.94454 5.69454C8.46027 5.17882 8.75 4.47935 8.75 3.75ZM4.25 3.75C4.25 3.52019 4.29526 3.29262 4.38321 3.0803C4.47116 2.86798 4.60006 2.67507 4.76256 2.51256C4.92507 2.35006 5.11798 2.22116 5.3303 2.13321C5.54262 2.04527 5.77019 2 6 2C6.22981 2 6.45738 2.04527 6.6697 2.13321C6.88202 2.22116 7.07493 2.35006 7.23744 2.51256C7.39994 2.67507 7.52884 2.86798 7.61679 3.0803C7.70474 3.29262 7.75 3.52019 7.75 3.75C7.75 4.21413 7.56563 4.65925 7.23744 4.98744C6.90925 5.31563 6.46413 5.5 6 5.5C5.53587 5.5 5.09075 5.31563 4.76256 4.98744C4.43437 4.65925 4.25 4.21413 4.25 3.75Z" fill="white"/>
<path d="M2.5 7H6.683C6.519 7.31 6.397 7.646 6.325 8H2.5C2.36739 8 2.24022 8.05268 2.14645 8.14645C2.05268 8.24021 2 8.36739 2 8.5V9C2 10.26 3.099 11.614 5.096 11.93C4.774 12.15 4.506 12.443 4.315 12.784C2.205 12.213 1 10.587 1 9V8.5C1 8.10218 1.15804 7.72064 1.43934 7.43934C1.72064 7.15804 2.10218 7 2.5 7Z" fill="white"/>
<path d="M7.87889 7.5C8.38289 6.89 9.14589 6.5 9.99989 6.5C10.5988 6.49896 11.1815 6.69386 11.6593 7.05497C12.137 7.41608 12.4835 7.92357 12.6459 8.5C12.7906 9.0145 12.7825 9.56 12.6224 10.0699C12.4624 10.5799 12.1573 11.0322 11.7446 11.3717C11.3318 11.7112 10.8291 11.9232 10.2979 11.9819C9.76661 12.0405 9.22979 11.9433 8.75289 11.702C8.3857 11.5151 8.0652 11.2481 7.81506 10.9207C7.56493 10.5934 7.39155 10.214 7.30774 9.81056C7.22393 9.40717 7.23183 8.9901 7.33087 8.59017C7.4299 8.19024 7.61752 7.81768 7.87989 7.5H7.87889ZM8.41888 8.5C8.32039 8.70776 8.26379 8.93287 8.2523 9.1625C8.2408 9.39213 8.27465 9.62177 8.35191 9.83832C8.42917 10.0549 8.54832 10.2541 8.70257 10.4246C8.85682 10.5951 9.04313 10.7335 9.25089 10.832C9.45864 10.9305 9.68375 10.9871 9.91338 10.9986C10.143 11.0101 10.3727 10.9762 10.5892 10.899C10.8057 10.8217 11.005 10.7026 11.1755 10.5483C11.3459 10.3941 11.4844 10.2078 11.5829 10C11.7818 9.5803 11.8058 9.09877 11.6497 8.66134C11.4936 8.22391 11.1701 7.86642 10.7504 7.6675C10.3307 7.46859 9.84915 7.44455 9.41172 7.60068C8.97429 7.7568 8.6168 8.0803 8.41789 8.5H8.41888Z" fill="white"/>
<path d="M15.6851 13.284C15.4946 12.9428 15.2272 12.6507 14.9041 12.431C16.9001 12.114 18.0001 10.759 18.0001 9.5V9C18.0001 8.86739 17.9474 8.74021 17.8537 8.64645C17.7599 8.55268 17.6327 8.5 17.5001 8.5H13.6751C13.6045 8.15133 13.4842 7.81458 13.3181 7.5H17.5001C17.8979 7.5 18.2795 7.65804 18.5608 7.93934C18.8421 8.22064 19.0001 8.60218 19.0001 9V9.5C19.0001 11.087 17.7941 12.712 15.6851 13.284Z" fill="white"/>
<path d="M14.487 13.37C14.223 13.14 13.878 13 13.5 13H6.50001C6.30287 12.9995 6.10758 13.0379 5.92536 13.1131C5.74313 13.1883 5.57756 13.2988 5.43817 13.4382C5.29878 13.5776 5.18831 13.7431 5.11311 13.9254C5.03792 14.1076 4.99948 14.3029 5.00001 14.5V15C5.00001 16.971 6.86 19 10 19C13.14 19 15 16.971 15 15V14.5C15 14.05 14.802 13.646 14.487 13.37ZM6.00001 14.5C6.00001 14.3674 6.05268 14.2402 6.14645 14.1465C6.24022 14.0527 6.3674 14 6.50001 14H13.5C13.6326 14 13.7598 14.0527 13.8536 14.1465C13.9473 14.2402 14 14.3674 14 14.5V15C14 16.438 12.568 18 10 18C7.432 18 6.00001 16.438 6.00001 15V14.5Z" fill="white"/>
<path d="M14 1C14.7293 1 15.4288 1.28973 15.9445 1.80546C16.4603 2.32118 16.75 3.02065 16.75 3.75C16.75 4.47935 16.4603 5.17882 15.9445 5.69454C15.4288 6.21027 14.7293 6.5 14 6.5C13.2707 6.5 12.5712 6.21027 12.0555 5.69454C11.5397 5.17882 11.25 4.47935 11.25 3.75C11.25 3.02065 11.5397 2.32118 12.0555 1.80546C12.5712 1.28973 13.2707 1 14 1ZM14 2C13.5359 2 13.0908 2.18437 12.7626 2.51256C12.4344 2.84075 12.25 3.28587 12.25 3.75C12.25 4.21413 12.4344 4.65925 12.7626 4.98744C13.0908 5.31563 13.5359 5.5 14 5.5C14.4641 5.5 14.9092 5.31563 15.2374 4.98744C15.5656 4.65925 15.75 4.21413 15.75 3.75C15.75 3.28587 15.5656 2.84075 15.2374 2.51256C14.9092 2.18437 14.4641 2 14 2Z" fill="white"/>
</svg>
