<svg width="45" height="44" viewBox="0 0 45 44" fill="none" xmlns="http://www.w3.org/2000/svg">
<path d="M25.1253 24.3773C24.1654 24.3773 23.3094 24.8348 22.7618 25.5417L18.1771 22.9807C18.2845 22.6723 18.3434 22.3396 18.3434 21.9965C18.3434 21.65 18.2845 21.3208 18.1736 21.0089L22.755 18.4514C23.299 19.1618 24.1585 19.6227 25.1218 19.6227C26.7644 19.6227 28.1056 18.285 28.1056 16.6389C28.1056 14.9929 26.7679 13.6552 25.1218 13.6552C23.4757 13.6552 22.1381 14.9929 22.1381 16.6389C22.1381 16.9855 22.197 17.3182 22.3079 17.6266L17.73 20.1841C17.186 19.4702 16.3265 19.0128 15.3631 19.0128C13.7205 19.0128 12.3794 20.3504 12.3794 21.9965C12.3794 23.6426 13.7205 24.9803 15.3666 24.9803C16.33 24.9803 17.1894 24.5193 17.737 23.8055L22.3183 26.3665C22.2074 26.6784 22.145 27.0145 22.145 27.3611C22.145 29.0037 23.4827 30.3448 25.1288 30.3448C26.7749 30.3448 28.1125 29.0071 28.1125 27.3611C28.1125 25.715 26.7714 24.3773 25.1253 24.3773ZM25.1253 14.5943C26.255 14.5943 27.1734 15.5127 27.1734 16.6424C27.1734 17.7721 26.255 18.6905 25.1253 18.6905C23.9956 18.6905 23.0773 17.7721 23.0773 16.6424C23.0773 15.5127 23.9991 14.5943 25.1253 14.5943ZM15.3666 24.0446C14.2368 24.0446 13.3185 23.1263 13.3185 21.9965C13.3185 20.8668 14.2368 19.9485 15.3666 19.9485C16.4963 19.9485 17.4147 20.8668 17.4147 21.9965C17.4147 23.1263 16.4929 24.0446 15.3666 24.0446ZM25.1253 29.4057C23.9956 29.4057 23.0773 28.4873 23.0773 27.3576C23.0773 26.2279 23.9956 25.3095 25.1253 25.3095C26.255 25.3095 27.1734 26.2279 27.1734 27.3576C27.1734 28.4873 26.255 29.4057 25.1253 29.4057Z" fill="white"/>
<path fill-rule="evenodd" clip-rule="evenodd" d="M22.6617 24.9644C23.2867 24.3235 24.1598 23.9222 25.1253 23.9222C27.0221 23.9222 28.5677 25.4629 28.5677 27.3611C28.5677 29.2585 27.0263 30.8 25.1288 30.8C23.2309 30.8 21.6899 29.2548 21.6899 27.3611C21.6899 27.0956 21.7215 26.836 21.7798 26.5869L17.8385 24.3837C17.2126 25.0309 16.3359 25.4355 15.3666 25.4355C13.4698 25.4355 11.9242 23.8947 11.9242 21.9965C11.9242 20.0987 13.4695 18.5576 15.3631 18.5576C16.3307 18.5576 17.2078 18.9583 17.8323 19.6056L21.7695 17.406C21.7124 17.1587 21.6829 16.9018 21.6829 16.6389C21.6829 14.7415 23.2243 13.2 25.1218 13.2C27.0193 13.2 28.5607 14.7415 28.5607 16.6389C28.5607 18.5368 27.0155 20.0779 25.1218 20.0779C24.1535 20.0779 23.277 19.674 22.6533 19.0294L18.7117 21.2298C18.7689 21.4769 18.7986 21.7327 18.7986 21.9965C18.7986 22.2574 18.769 22.513 18.7133 22.7589L22.6617 24.9644ZM18.1771 22.9807L22.7618 25.5417C23.3094 24.8348 24.1654 24.3773 25.1253 24.3773C26.7714 24.3773 28.1125 25.715 28.1125 27.3611C28.1125 29.0071 26.7749 30.3448 25.1288 30.3448C23.4827 30.3448 22.145 29.0037 22.145 27.3611C22.145 27.0145 22.2074 26.6784 22.3183 26.3665L17.737 23.8055C17.1894 24.5193 16.33 24.9803 15.3666 24.9803C13.7205 24.9803 12.3794 23.6426 12.3794 21.9965C12.3794 20.3504 13.7205 19.0128 15.3631 19.0128C16.3265 19.0128 17.186 19.4702 17.73 20.1841L22.3079 17.6266C22.197 17.3182 22.1381 16.9855 22.1381 16.6389C22.1381 14.9929 23.4757 13.6552 25.1218 13.6552C26.7679 13.6552 28.1056 14.9929 28.1056 16.6389C28.1056 18.285 26.7644 19.6227 25.1218 19.6227C24.1585 19.6227 23.299 19.1618 22.755 18.4514L18.1736 21.0089C18.2845 21.3208 18.3434 21.65 18.3434 21.9965C18.3434 22.3396 18.2845 22.6723 18.1771 22.9807ZM26.7183 16.6424C26.7183 15.7641 26.0037 15.0495 25.1253 15.0495C24.2499 15.0495 23.5324 15.7645 23.5324 16.6424C23.5324 17.5208 24.247 18.2353 25.1253 18.2353C26.0037 18.2353 26.7183 17.5207 26.7183 16.6424ZM13.7737 21.9965C13.7737 22.8749 14.4882 23.5894 15.3666 23.5894C16.242 23.5894 16.9595 22.8744 16.9595 21.9965C16.9595 21.1182 16.245 20.4036 15.3666 20.4036C14.4882 20.4036 13.7737 21.1182 13.7737 21.9965ZM23.5324 27.3576C23.5324 28.2359 24.247 28.9505 25.1253 28.9505C26.0037 28.9505 26.7183 28.2359 26.7183 27.3576C26.7183 26.4793 26.0036 25.7647 25.1253 25.7647C24.247 25.7647 23.5324 26.4792 23.5324 27.3576ZM27.1734 16.6424C27.1734 15.5127 26.255 14.5943 25.1253 14.5943C23.9991 14.5943 23.0773 15.5127 23.0773 16.6424C23.0773 17.7721 23.9956 18.6905 25.1253 18.6905C26.255 18.6905 27.1734 17.7721 27.1734 16.6424ZM13.3185 21.9965C13.3185 23.1263 14.2368 24.0446 15.3666 24.0446C16.4929 24.0446 17.4147 23.1263 17.4147 21.9965C17.4147 20.8668 16.4963 19.9485 15.3666 19.9485C14.2368 19.9485 13.3185 20.8668 13.3185 21.9965ZM23.0773 27.3576C23.0773 28.4873 23.9956 29.4057 25.1253 29.4057C26.255 29.4057 27.1734 28.4873 27.1734 27.3576C27.1734 26.2279 26.255 25.3095 25.1253 25.3095C23.9956 25.3095 23.0773 26.2279 23.0773 27.3576Z" fill="white"/>
<path fill-rule="evenodd" clip-rule="evenodd" d="M22.2414 41.8C33.1766 41.8 42.0414 32.9352 42.0414 22C42.0414 11.0648 33.1766 2.2 22.2414 2.2C11.3062 2.2 2.44139 11.0648 2.44139 22C2.44139 32.9352 11.3062 41.8 22.2414 41.8ZM22.2414 44C34.3917 44 44.2414 34.1503 44.2414 22C44.2414 9.84974 34.3917 0 22.2414 0C10.0911 0 0.241394 9.84974 0.241394 22C0.241394 34.1503 10.0911 44 22.2414 44Z" fill="white"/>
</svg>
